<svg xmlns="http://www.w3.org/2000/svg">
  <symbol id="menu" viewBox="0 0 24 24">
    <path d="M4 7h16M4 12h16M4 17h16" fill="none" stroke="currentColor" stroke-width="1.8" stroke-linecap="round"/>
  </symbol>
  <symbol id="close" viewBox="0 0 24 24">
    <path d="m6 6 12 12M18 6 6 18" fill="none" stroke="currentColor" stroke-width="1.8" stroke-linecap="round"/>
  </symbol>
  <symbol id="bell" viewBox="0 0 24 24">
    <path d="M18 9a6 6 0 0 0-12 0c0 7-3 7-3 9h18c0-2-3-2-3-9Z" fill="none" stroke="currentColor" stroke-width="1.7" stroke-linejoin="round"/>
    <path d="M10 21h4" fill="none" stroke="currentColor" stroke-width="1.7" stroke-linecap="round"/>
  </symbol>
  <symbol id="shield" viewBox="0 0 24 24">
    <path d="M12 3 20 6v6.2c0 4.7-3.2 7.6-8 8.8-4.8-1.2-8-4.1-8-8.8V6l8-3Z" fill="none" stroke="currentColor" stroke-width="1.7" stroke-linejoin="round"/>
    <path d="m8.7 12 2.1 2.1 4.6-5" fill="none" stroke="currentColor" stroke-width="1.7" stroke-linecap="round" stroke-linejoin="round"/>
  </symbol>
  <symbol id="brain" viewBox="0 0 24 24">
    <path d="M9 4.5A3.5 3.5 0 0 0 5.5 8v.4A3.8 3.8 0 0 0 4 15.5 3.5 3.5 0 0 0 9 20m0-15.5V20m6-15.5A3.5 3.5 0 0 1 18.5 8v.4A3.8 3.8 0 0 1 20 15.5 3.5 3.5 0 0 1 15 20m0-15.5V20" fill="none" stroke="currentColor" stroke-width="1.6" stroke-linecap="round"/>
    <path d="M9 8.5H7.7M9 13H6.8M15 8.5h1.3M15 13h2.2M9 17h2.2M15 17h-2.2" fill="none" stroke="currentColor" stroke-width="1.6" stroke-linecap="round"/>
  </symbol>
  <symbol id="chart" viewBox="0 0 24 24">
    <path d="M4 19V5M4 19h16" fill="none" stroke="currentColor" stroke-width="1.7" stroke-linecap="round"/>
    <path d="m7 15 3.4-4 3 2.7L19 7" fill="none" stroke="currentColor" stroke-width="1.7" stroke-linecap="round" stroke-linejoin="round"/>
  </symbol>
  <symbol id="bolt" viewBox="0 0 24 24">
    <path d="m13 2-8 12h6l-1 8 9-13h-6l0-7Z" fill="none" stroke="currentColor" stroke-width="1.7" stroke-linejoin="round"/>
  </symbol>
  <symbol id="lock" viewBox="0 0 24 24">
    <path d="M7 10V8a5 5 0 0 1 10 0v2" fill="none" stroke="currentColor" stroke-width="1.7" stroke-linecap="round"/>
    <rect x="5" y="10" width="14" height="11" rx="2.4" fill="none" stroke="currentColor" stroke-width="1.7"/>
    <path d="M12 15v2" fill="none" stroke="currentColor" stroke-width="1.7" stroke-linecap="round"/>
  </symbol>
  <symbol id="plug" viewBox="0 0 24 24">
    <path d="M8 3v5M16 3v5M7 8h10v3a5 5 0 0 1-10 0V8ZM12 16v5" fill="none" stroke="currentColor" stroke-width="1.7" stroke-linecap="round" stroke-linejoin="round"/>
  </symbol>
  <symbol id="check" viewBox="0 0 24 24">
    <path d="m5 12.5 4.2 4.2L19 7" fill="none" stroke="currentColor" stroke-width="1.9" stroke-linecap="round" stroke-linejoin="round"/>
  </symbol>
  <symbol id="arrow-right" viewBox="0 0 24 24">
    <path d="M5 12h14M13 6l6 6-6 6" fill="none" stroke="currentColor" stroke-width="1.8" stroke-linecap="round" stroke-linejoin="round"/>
  </symbol>
  <symbol id="server" viewBox="0 0 24 24">
    <rect x="4" y="4" width="16" height="6" rx="2" fill="none" stroke="currentColor" stroke-width="1.7"/>
    <rect x="4" y="14" width="16" height="6" rx="2" fill="none" stroke="currentColor" stroke-width="1.7"/>
    <path d="M8 7h.01M8 17h.01M12 7h4M12 17h4" fill="none" stroke="currentColor" stroke-width="1.8" stroke-linecap="round"/>
  </symbol>
  <symbol id="spark" viewBox="0 0 24 24">
    <path d="M12 3 10 9l-6 3 6 3 2 6 2-6 6-3-6-3-2-6Z" fill="none" stroke="currentColor" stroke-width="1.6" stroke-linejoin="round"/>
  </symbol>
  <symbol id="question" viewBox="0 0 24 24">
    <path d="M9.4 9a2.7 2.7 0 0 1 5.2 1c0 2-2.6 2.3-2.6 4.2" fill="none" stroke="currentColor" stroke-width="1.7" stroke-linecap="round"/>
    <path d="M12 18h.01" fill="none" stroke="currentColor" stroke-width="2.6" stroke-linecap="round"/>
    <circle cx="12" cy="12" r="9" fill="none" stroke="currentColor" stroke-width="1.7"/>
  </symbol>
  <symbol id="mail" viewBox="0 0 24 24">
    <rect x="4" y="6" width="16" height="12" rx="2.4" fill="none" stroke="currentColor" stroke-width="1.7"/>
    <path d="m5 8 7 5 7-5" fill="none" stroke="currentColor" stroke-width="1.7" stroke-linecap="round" stroke-linejoin="round"/>
  </symbol>
  <symbol id="key" viewBox="0 0 24 24">
    <circle cx="8.5" cy="15.5" r="3.5" fill="none" stroke="currentColor" stroke-width="1.7"/>
    <path d="m11 13 8-8M16 8l2 2M14 10l2 2" fill="none" stroke="currentColor" stroke-width="1.7" stroke-linecap="round" stroke-linejoin="round"/>
  </symbol>
  <symbol id="user" viewBox="0 0 24 24">
    <circle cx="12" cy="8" r="4" fill="none" stroke="currentColor" stroke-width="1.7"/>
    <path d="M5 20a7 7 0 0 1 14 0" fill="none" stroke="currentColor" stroke-width="1.7" stroke-linecap="round"/>
  </symbol>
  <symbol id="eye" viewBox="0 0 24 24">
    <path d="M3 12s3.3-6 9-6 9 6 9 6-3.3 6-9 6-9-6-9-6Z" fill="none" stroke="currentColor" stroke-width="1.7" stroke-linejoin="round"/>
    <circle cx="12" cy="12" r="2.5" fill="none" stroke="currentColor" stroke-width="1.7"/>
  </symbol>
  <symbol id="eye-off" viewBox="0 0 24 24">
    <path d="M3 3l18 18M9.8 5.4A9.7 9.7 0 0 1 12 5c5.7 0 9 7 9 7a14.9 14.9 0 0 1-3.1 4M6.2 6.9A15.5 15.5 0 0 0 3 12s3.3 7 9 7c1.2 0 2.3-.3 3.3-.7M10.6 10.6a2 2 0 0 0 2.8 2.8" fill="none" stroke="currentColor" stroke-width="1.7" stroke-linecap="round" stroke-linejoin="round"/>
  </symbol>
  <symbol id="google" viewBox="0 0 24 24">
    <path d="M21.6 12.2c0-.7-.1-1.4-.2-2H12v3.8h5.4a4.6 4.6 0 0 1-2 3v2.5h3.2c1.9-1.7 3-4.2 3-7.3Z" fill="currentColor"/>
    <path d="M12 22c2.7 0 5-.9 6.6-2.5L15.4 17c-.9.6-2 .9-3.4.9-2.6 0-4.8-1.8-5.6-4.1H3.1v2.6A10 10 0 0 0 12 22Z" fill="currentColor" opacity=".82"/>
    <path d="M6.4 13.8a6 6 0 0 1 0-3.6V7.6H3.1a10 10 0 0 0 0 8.8l3.3-2.6Z" fill="currentColor" opacity=".68"/>
    <path d="M12 6.1c1.5 0 2.8.5 3.8 1.5l2.8-2.8A9.5 9.5 0 0 0 12 2 10 10 0 0 0 3.1 7.6l3.3 2.6c.8-2.3 3-4.1 5.6-4.1Z" fill="currentColor"/>
  </symbol>
  <symbol id="home" viewBox="0 0 24 24">
    <path d="m4 11 8-7 8 7v9a1 1 0 0 1-1 1h-5v-6h-4v6H5a1 1 0 0 1-1-1v-9Z" fill="none" stroke="currentColor" stroke-width="1.7" stroke-linejoin="round"/>
  </symbol>
  <symbol id="history" viewBox="0 0 24 24">
    <path d="M4 12a8 8 0 1 0 2.3-5.7L4 8.6" fill="none" stroke="currentColor" stroke-width="1.7" stroke-linecap="round" stroke-linejoin="round"/>
    <path d="M4 4v4.6h4.6M12 8v4.4l3 1.8" fill="none" stroke="currentColor" stroke-width="1.7" stroke-linecap="round" stroke-linejoin="round"/>
  </symbol>
  <symbol id="wallet" viewBox="0 0 24 24">
    <path d="M5 6h14a2 2 0 0 1 2 2v10a2 2 0 0 1-2 2H5a2 2 0 0 1-2-2V6.8A2.8 2.8 0 0 1 5.8 4H17" fill="none" stroke="currentColor" stroke-width="1.7" stroke-linejoin="round"/>
    <path d="M16 12h5v4h-5a2 2 0 0 1 0-4Z" fill="none" stroke="currentColor" stroke-width="1.7" stroke-linejoin="round"/>
  </symbol>
  <symbol id="profile" viewBox="0 0 24 24">
    <path d="M12 12a4 4 0 1 0 0-8 4 4 0 0 0 0 8Z" fill="none" stroke="currentColor" stroke-width="1.7"/>
    <path d="M4.5 21a7.5 7.5 0 0 1 15 0" fill="none" stroke="currentColor" stroke-width="1.7" stroke-linecap="round"/>
  </symbol>
  <symbol id="play" viewBox="0 0 24 24">
    <path d="M8 5.5v13l10-6.5-10-6.5Z" fill="none" stroke="currentColor" stroke-width="1.8" stroke-linejoin="round"/>
  </symbol>
  <symbol id="stop" viewBox="0 0 24 24">
    <rect x="7" y="7" width="10" height="10" rx="1.4" fill="none" stroke="currentColor" stroke-width="1.8"/>
  </symbol>
  <symbol id="trending-up" viewBox="0 0 24 24">
    <path d="m4 16 5.2-5.2 3.8 3.8L20 7.5" fill="none" stroke="currentColor" stroke-width="1.8" stroke-linecap="round" stroke-linejoin="round"/>
    <path d="M15 7.5h5v5" fill="none" stroke="currentColor" stroke-width="1.8" stroke-linecap="round" stroke-linejoin="round"/>
  </symbol>
  <symbol id="target" viewBox="0 0 24 24">
    <circle cx="12" cy="12" r="8" fill="none" stroke="currentColor" stroke-width="1.7"/>
    <circle cx="12" cy="12" r="3.2" fill="none" stroke="currentColor" stroke-width="1.7"/>
    <path d="M12 2v3M12 19v3M2 12h3M19 12h3" fill="none" stroke="currentColor" stroke-width="1.7" stroke-linecap="round"/>
  </symbol>
</svg>
